<?xml version="1.0" encoding="utf-8"?>
<!-- Generator: Adobe Illustrator 24.1.1, SVG Export Plug-In . SVG Version: 6.00 Build 0)  -->
<svg version="1.1" id="Capa_1" xmlns="http://www.w3.org/2000/svg" xmlns:xlink="http://www.w3.org/1999/xlink" x="0px" y="0px"
	 viewBox="0 0 1000 437.6" style="enable-background:new 0 0 1000 437.6;" xml:space="preserve">
<style type="text/css">
	.st0{fill:#200F21;}
	.st1{fill:#ECC405;}
	.st2{fill:#FFFFFF;}
	.st3{opacity:0.6;fill:#FFFFFF;enable-background:new    ;}
	.st4{opacity:0.29;fill:#FFFFFF;enable-background:new    ;}
	.st5{opacity:0.17;fill:#1E120D;enable-background:new    ;}
	.st6{opacity:0.49;fill:#FFFFFF;enable-background:new    ;}
</style>
<g>
	<g>
		<g>
			<g>
				<path class="st0" d="M155.4,86.9l140-10.9c4.7-0.4,9.5,4.4,10.1,10.5l4.7,51.1c0.6,6.2-3.3,11.6-8,11.9l-66.9,5.2
					c-5.1,0.4-8.6,6.1-8,11.9c0.6,6.5,5,11.3,10.1,10.9l40.1-3.1c4.7-0.4,9.5,4.4,10.1,10.5l4.6,50.3c0.6,6.2-3.3,11.6-8,11.9
					l-40.1,3.1c-5.1,0.4-8.6,6.1-8,11.9l0.1,1.5c0.6,6.2,5,10.9,10.1,10.5l66.9-5.2c4.7-0.4,9.5,4.7,10.1,10.5l4.7,51.1
					c0.6,6.5-3.3,11.9-8,12.3l-140,10.9c-5.1,0.4-9.5-4.4-10.1-10.9l-22.5-244C146.9,92.7,150.3,87.3,155.4,86.9z"/>
			</g>
			<g>
				<path class="st0" d="M421.4,289v32c0,6.9-4.7,12.4-9.9,12.4h-53.7c-5.5,0-9.9-5.5-9.9-12.4V77.8c0-6.9,4.3-12.3,9.9-12.3h73
					c62,0,96.3,19.6,96.3,104.3c0,84.3-34,106.8-96.3,106.8C425.8,276.6,421.4,282.1,421.4,289z M427.8,203.2
					c19,0,25.3-10.2,25.3-33.4c0-24.4-6.3-31.3-25.3-31.3h-6.3v64.7L427.8,203.2L427.8,203.2z"/>
			</g>
			<g>
				<path class="st0" d="M589.4,70.2l88.9,6.3c6.3,0.4,11.4,6.3,12.3,14l21.5,236.2c1.1,10.6-6,20.4-14.3,19.8l-46.8-3.3
					c-5.9-0.4-11-5.9-11.9-13.6l-0.3-5.5c-1-7.4-6-13.2-11.9-13.6l-26.8-1.9c-6.7-0.5-12.3,5-14.1,12.9l-1.1,3.6
					c-1.8,7.9-7.8,12.9-14.1,12.5l-44.5-3.1c-8.3-0.6-13.7-11.2-10.9-21.2l60-230.9C577.2,74.8,583.1,69.8,589.4,70.2z M608.7,218.8
					c-2.4,10,3.1,19.9,11.4,20.5s15.3-8.4,15-18.6l-2.9-74.6l-7.9-0.6L608.7,218.8z"/>
			</g>
			<g>
				<g>
					<path class="st1" d="M171.1,86.9l140-10.9c4.7-0.4,9.5,4.4,10.1,10.5l4.7,51.1c0.6,6.2-3.3,11.6-8,11.9l-66.9,5.2
						c-5.1,0.4-8.6,6.1-8,11.9c0.6,6.5,5,11.3,10.1,10.9l40.1-3.1c4.7-0.4,9.5,4.4,10.1,10.5l4.6,50.3c0.6,6.2-3.3,11.6-8,11.9
						l-40.1,3.1c-5.1,0.4-8.6,6.1-8,11.9l0.1,1.5c0.6,6.2,5,10.9,10.1,10.5l66.9-5.2c4.7-0.4,9.5,4.7,10.1,10.5l4.7,51.1
						c0.6,6.5-3.3,11.9-8,12.3l-140,10.9c-5.1,0.4-9.5-4.4-10.1-10.9l-22.5-244C162.5,92.7,166,87.3,171.1,86.9z"/>
				</g>
			</g>
			<g>
				<g>
					<path class="st1" d="M437.1,289v32c0,6.9-4.7,12.4-9.9,12.4h-53.7c-5.5,0-9.9-5.5-9.9-12.4V77.8c0-6.9,4.3-12.4,9.9-12.4h73
						c62,0,96.3,19.6,96.3,104.3c0,84.3-34,106.8-96.3,106.8C441.4,276.6,437.1,282.1,437.1,289z M443.4,203.2
						c19,0,25.3-10.2,25.3-33.4c0-24.4-6.3-31.3-25.3-31.3h-6.3v64.7L443.4,203.2L443.4,203.2z"/>
				</g>
			</g>
			<g>
				<g>
					<path class="st1" d="M605.1,70.2l89,6.3c6.3,0.4,11.3,6.3,12.3,14l21.5,236.2c1.1,10.6-6,20.4-14.3,19.8l-46.8-3.3
						c-5.9-0.4-11-5.9-11.9-13.6l-0.3-5.5c-1-7.4-6-13.2-11.9-13.6l-26.8-1.9c-6.7-0.5-12.3,5-14.1,12.9l-1.1,3.6
						c-1.8,7.9-7.8,12.9-14.1,12.5l-44.5-3.1c-8.3-0.6-13.7-11.2-10.9-21.2l60-230.8C592.8,74.8,598.8,69.8,605.1,70.2z
						 M624.4,218.8c-2.4,10,3.1,19.9,11.4,20.5s15.3-8.4,15-18.6l-2.9-74.6l-7.9-0.6L624.4,218.8z"/>
				</g>
			</g>
			<g>
				<g>
					<path class="st1" d="M768.3,286.3L830,288c8.6,0.2,14.8,8.4,14.4,18.1l-2.4,56.5c-0.4,9.7-7.3,17.5-15.9,17.3l-61.7-1.7
						c-8.6-0.2-14.8-8.4-14.4-18.1l2.4-56.5C752.7,293.9,759.7,286.1,768.3,286.3z M775.5,67.3l65.7,1.8c8.6,0.2,15.3,8.9,14.9,19
						l-12,161.9c-0.4,9.7-7.3,17.1-15.9,16.9l-56.6-1.5c-8.6-0.2-14.8-8-14.4-17.7L759,85.6C759.5,75.3,767,67.1,775.5,67.3z"/>
				</g>
			</g>
			<g>
				<g>
					<path class="st2" d="M775.3,288.2l56.7,1.6c7.9,0.2,13.6,8.3,13.3,17.8l-2.2,55.4c-0.4,9.5-6.7,17.2-14.6,17l-56.7-1.6
						c-7.9-0.2-13.6-8.3-13.3-17.8l2.2-55.4C761.1,295.7,767.4,288,775.3,288.2z M782,73.7l60.4,1.7c7.9,0.2,14.1,8.7,13.7,18.6
						l-11,158.6c-0.4,9.5-6.7,16.8-14.6,16.5l-52.1-1.5c-7.9-0.2-13.7-7.8-13.3-17.3l1.7-158.8C767.3,81.5,774.2,73.5,782,73.7z"/>
				</g>
			</g>
			<g>
				<path class="st3" d="M590.5,308.9c-0.1-7-4.2-11.7-14.2-14.8c-6.4-2-8.5-3.2-8.5-5.5c0-2.4,2.3-3.9,6.3-3.9
					c4.4,0,9,1.6,11.4,2.7l2.8-10.3c-2.6-1.2-6.8-2.3-11.5-2.6v-5.8h-8.9v6.1c-9.7,1.7-15.7,7.6-15.7,15.3c-0.1,5.6,4,11.1,15,14.4
					c6,1.9,7.7,3.1,7.7,5.5c0,2.5-2.1,4-7,4c-4.8,0-11-1.9-14-3.6l-3,10.7c4,2,10.2,3.4,17,3.4v5.6h8.9v-6.6
					C585.9,321.3,590.5,315.8,590.5,308.9z"/>
				<path class="st3" d="M233.1,267.6c-1.4,2-4.9,4.9-9.5,6.9c-5.3,2.3-11.3,2.9-16.5,1.1c-3.3-1.1-6.4-3.2-8.9-6l-4.9,2.1l-2.1-4
					l4.2-1.8c-0.4-0.7-0.7-1.2-0.9-1.5c-0.3-0.5-0.6-1.2-0.9-2l-4.2,1.8l-2.1-4l4.9-2.1c-0.8-3.4-0.4-6.9,0.7-9.9
					c2-5.2,6.5-9.3,12-11.7c4.5-2,8.3-2.3,10.6-2.3l1.1,6.6c-1.9,0-4.7,0.3-8,1.7c-3.1,1.4-5.7,3.6-6.9,6.6
					c-0.7,1.6-0.8,3.3-0.4,5.1l16.9-7.4l2.1,4l-18,7.8c0.3,0.7,0.6,1.3,0.8,1.7c0.3,0.5,0.6,1.1,1,1.8l18-7.8l2.1,4l-16.9,7.4
					c1.2,1.3,2.6,2.2,4.2,2.7c3.5,1,6.8,0.7,10.2-0.8c3.3-1.4,6-3.6,7.3-5.2L233.1,267.6z"/>
				<path class="st4" d="M284.7,218.9c-7.3,3.9-21.8,8.1-38.5,8.1c-19.1,0-37.5-5.9-50.1-17.7c-8.1-7.4-14-17.5-17-28.8h-17.5V166
					h15.1c0-2.5-0.3-4.4-0.3-5.7c0-1.7,0-4.4,0.5-7.2h-15.1v-14.5h17.5c3-11.1,9.1-20.7,17.3-28.1c13.7-12.6,33.1-19,53.1-19
					c16.2,0,27.8,3.7,34.5,6.7l-6.7,20.7c-5.4-2.5-14.3-5.2-26.1-5.2c-11.3,0-22.1,3.2-30.2,10.6c-4.3,3.7-7.5,8.6-8.9,14.3h60.9
					V153h-64.7c-0.3,2.5-0.3,4.7-0.3,6.2c0,2,0,3.9,0.3,6.7h64.7v14.5h-60.9c1.6,5.4,4.3,9.9,8.1,13.3c8.6,7.4,18.9,10.6,31.3,10.6
					c11.9,0,23.2-2.9,29.4-5.9L284.7,218.9z"/>
				<path class="st3" d="M701.3,200.1c-1.2,0.7-3.7,1.4-6.4,1.4c-3.2,0-6.3-1-8.4-3c-1.3-1.2-2.3-2.9-2.8-4.8h-2.9v-2.4h2.5
					c0-0.4,0-0.7,0-0.9c0-0.3,0-0.7,0.1-1.2h-2.5v-2.4h2.9c0.5-1.9,1.5-3.5,2.9-4.7c2.3-2.1,5.5-3.2,8.9-3.2c2.7,0,4.6,0.6,5.8,1.1
					l-1.1,3.5c-0.9-0.4-2.4-0.9-4.4-0.9c-1.9,0-3.7,0.5-5,1.8c-0.7,0.6-1.3,1.4-1.5,2.4h10.2v2.4h-10.8c0,0.4,0,0.8,0,1
					c0,0.3,0,0.7,0,1.1h10.8v2.4h-10.2c0.3,0.9,0.7,1.6,1.3,2.2c1.4,1.2,3.2,1.8,5.2,1.8s3.9-0.5,4.9-1L701.3,200.1z"/>
				<path class="st3" d="M408,237.6c-1.6,0.9-4.8,1.8-8.5,1.8c-4.2,0-8.3-1.3-11.1-3.9c-1.8-1.6-3.1-3.9-3.7-6.4h-3.9v-3.2h3.3
					c0-0.5-0.1-1-0.1-1.3c0-0.4,0-1,0.1-1.6h-3.3v-3.2h3.9c0.6-2.4,2-4.6,3.8-6.2c3-2.8,7.3-4.2,11.7-4.2c3.6,0,6.1,0.8,7.6,1.5
					l-1.5,4.6c-1.2-0.5-3.1-1.1-5.8-1.1c-2.5,0-4.9,0.7-6.7,2.3c-1,0.8-1.7,1.9-2,3.1h13.4v3.2h-14.3c-0.1,0.5-0.1,1-0.1,1.4
					s0,0.9,0.1,1.5h14.3v3.2H392c0.4,1.2,1,2.2,1.8,2.9c1.9,1.6,4.1,2.3,6.9,2.3c2.6,0,5.1-0.6,6.5-1.3L408,237.6z"/>
				<path class="st3" d="M308.9,308.3v-5.7h-5.8v-2.1h5.8v-2.3h-5.8V296h4.7l-6.2-10h5l3.1,6.2c0.7,1.3,1.1,2.3,1.6,3.4h0.1
					c0.5-1,0.9-2.2,1.6-3.5l3.3-6.1h4.9l-6.6,10h4.6v2.1h-5.9v2.3h5.9v2.1h-5.9v5.7L308.9,308.3L308.9,308.3z"/>
				<path class="st3" d="M405.6,322.6v-10.2h-10.4v-3.7h10.4v-4.2h-10.4v-3.7h8.4l-11.1-17.9h8.9L407,294c1.2,2.3,1.9,4.2,2.8,6.1
					h0.1c0.8-1.8,1.7-4,2.8-6.2l5.8-10.9h8.7l-11.7,17.9h8.3v3.7h-10.5v4.2h10.5v3.7h-10.5v10.2L405.6,322.6L405.6,322.6z"/>
				<path class="st3" d="M580.4,222.9v-7.5h-7.6v-2.7h7.6v-3.1h-7.6v-2.7h6.1l-8.1-13.1h6.5l4.1,8.1c0.9,1.7,1.4,3,2.1,4.5h0.1
					c0.6-1.3,1.2-2.9,2-4.6l4.3-8h6.4l-8.6,13.1h6.1v2.7H586v3.1h7.7v2.7H586v7.5H580.4z"/>
				<path class="st3" d="M265.9,319.6c-0.1-5.6-3.4-9.3-11.3-11.7c-5.1-1.6-6.8-2.6-6.8-4.4c0-1.9,1.8-3.1,5-3.1
					c3.5,0,7.2,1.3,9,2.1l2.3-8.2c-2.1-1-5.4-1.8-9.1-2.1v-4.6h-7.1v4.9c-7.7,1.3-12.4,6.1-12.4,12.1c-0.1,4.5,3.2,8.8,11.9,11.4
					c4.8,1.5,6.1,2.4,6.1,4.4c0,1.9-1.7,3.1-5.6,3.1c-3.8,0-8.8-1.5-11.1-2.8l-2.3,8.5c3.2,1.6,8.1,2.7,13.5,2.7v4.4h7.1v-5.2
					C262.2,329.5,265.9,325.1,265.9,319.6z"/>
				<path class="st3" d="M409.8,129.8c-0.1-6.1-3.7-10.3-12.5-13c-5.6-1.8-7.5-2.8-7.5-4.9s2-3.4,5.5-3.4c3.9,0,7.9,1.4,10,2.4
					l2.5-9c-2.3-1.1-5.9-2-10.1-2.3v-5h-7.8v5.4c-8.5,1.5-13.8,6.7-13.8,13.4c0,4.9,3.5,9.7,13.1,12.6c5.3,1.6,6.8,2.7,6.8,4.9
					c0,2.1-1.9,3.5-6.2,3.5c-4.2,0-9.7-1.7-12.3-3.1l-2.6,9.3c3.5,1.7,8.9,3,14.9,3v4.9h7.8v-5.8
					C405.7,140.7,409.8,135.9,409.8,129.8z"/>
				<path class="st3" d="M689.8,316.9c0-4.6-2.8-7.7-9.3-9.7c-4.2-1.3-5.6-2.1-5.6-3.6c0-1.6,1.5-2.5,4.1-2.5c2.9,0,5.9,1,7.5,1.8
					l1.9-6.8c-1.7-0.8-4.5-1.5-7.6-1.7v-3.8h-5.9v4c-6.4,1.1-10.3,5-10.3,10c0,3.7,2.7,7.3,9.8,9.5c4,1.2,5.1,2,5.1,3.6
					s-1.4,2.6-4.6,2.6c-3.1,0-7.3-1.3-9.2-2.4l-1.9,7c2.6,1.3,6.7,2.2,11.2,2.2v3.7h5.9v-4.3C686.7,325.1,689.8,321.5,689.8,316.9z"
					/>
				<path class="st3" d="M638.3,106.6c-1.6-1.5-3.7-2.6-6.4-3v-0.2c1.9-0.8,3.4-1.9,4.5-3.3c1-1.4,1.6-3,1.6-4.8
					c0-1.6-0.4-3-1.2-4.2s-1.9-2.2-3.5-2.9c-1.5-0.7-3-1.1-4.6-1.3c-0.6-0.1-1.4-0.2-2.3-0.2v-5.8h-5.1v5.7h-2.7v-5.7h-5.1v5.7h-8.2
					v37.8h8.2v5.8h5.1v-5.8h2.7v5.8h5.1v-5.9c1.7-0.1,3.2-0.3,4.4-0.6c2-0.5,3.7-1.3,5.4-2.4c1.4-0.9,2.5-2.1,3.3-3.6
					s1.2-3.1,1.2-4.9C640.7,110.2,639.9,108.2,638.3,106.6z M627,97.2c0,0.8-0.2,1.5-0.4,2.2c-0.3,0.6-0.9,1.1-1.9,1.5
					c-0.7,0.3-1.6,0.5-2.8,0.5s-2.6,0.1-4.3,0.1h-1.7v-8h1c2.1,0,3.7,0,4.9,0s2.1,0.2,2.9,0.4c0.9,0.3,1.5,0.8,1.8,1.4
					C626.8,95.9,627,96.6,627,97.2z M629,115c-0.4,0.7-1.2,1.3-2.3,1.7c-1.1,0.4-2.3,0.6-3.6,0.7c-1.3,0-3.4,0-6.4,0h-0.8V108h2.3
					c1.6,0,3.1,0,4.6,0s2.6,0.1,3.4,0.4c1.2,0.3,2.1,0.8,2.6,1.5s0.8,1.6,0.8,2.8C629.6,113.5,629.4,114.3,629,115z"/>
				<path class="st3" d="M535.9,161.1c-2.5-2.5-6-4.1-10.3-4.9v-0.3c3.1-1.3,5.5-3,7.2-5.2s2.5-4.8,2.5-7.8c0-2.5-0.6-4.8-1.8-6.7
					s-3.1-3.5-5.6-4.7c-2.4-1.1-4.9-1.8-7.4-2.2c-1-0.1-2.2-0.2-3.7-0.3v-9.3h-8.1v9.1h-4.3v-9.1h-8.1v9.1H483v60.6h13.1v9.3h8.1
					v-9.3h4.3v9.3h8.1v-9.5c2.7-0.2,5.1-0.5,7.1-1c3.1-0.8,6-2,8.6-3.8c2.3-1.5,4-3.4,5.3-5.7s1.9-4.9,1.9-7.9
					C539.7,166.8,538.4,163.5,535.9,161.1z M517.8,145.9c0,1.3-0.2,2.4-0.7,3.4s-1.5,1.8-3,2.4c-1.1,0.5-2.6,0.7-4.5,0.8
					s-4.2,0.1-6.9,0.1H500v-12.8h1.6c3.4,0,6,0,7.8,0.1c1.9,0,3.4,0.3,4.6,0.7c1.4,0.5,2.4,1.2,2.9,2.2
					C517.5,143.9,517.8,144.9,517.8,145.9z M520.9,174.5c-0.7,1.1-1.9,2-3.7,2.7s-3.7,1-5.7,1.1c-2.1,0-5.5,0-10.3,0H500v-15.1h3.7
					c2.5,0,5,0,7.3,0s4.2,0.2,5.5,0.6c2,0.5,3.3,1.3,4.2,2.3c0.8,1.1,1.2,2.5,1.2,4.5C521.9,172.1,521.6,173.3,520.9,174.5z"/>
				<path class="st3" d="M690.8,256.2c-0.9-0.9-2.2-1.5-3.7-1.8v-0.1c1.1-0.4,2-1.1,2.6-1.9c0.6-0.8,0.9-1.7,0.9-2.8
					c0-0.9-0.2-1.7-0.7-2.4s-1.1-1.3-2-1.7s-1.8-0.7-2.7-0.8c-0.4-0.1-0.8-0.1-1.3-0.1v-3.4H681v3.3h-1.6v-3.3h-2.9v3.3h-4.8v21.9
					h4.8v3.4h2.9v-3.4h1.6v3.4h2.9v-3.4c1-0.1,1.8-0.2,2.6-0.4c1.1-0.3,2.2-0.7,3.1-1.4c0.8-0.6,1.5-1.2,1.9-2.1
					c0.5-0.8,0.7-1.8,0.7-2.8C692.2,258.3,691.7,257.1,690.8,256.2z M684.3,250.7c0,0.5-0.1,0.9-0.3,1.2c-0.2,0.4-0.5,0.6-1.1,0.9
					c-0.4,0.2-0.9,0.3-1.6,0.3c-0.7,0-1.5,0-2.5,0h-1v-4.6h0.6c1.2,0,2.2,0,2.8,0c0.7,0,1.2,0.1,1.7,0.3s0.8,0.4,1,0.8
					C684.2,250,684.3,250.4,684.3,250.7z M685.4,261c-0.2,0.4-0.7,0.7-1.3,1c-0.6,0.3-1.3,0.4-2.1,0.4s-2,0-3.7,0h-0.5v-5.5h1.3
					c0.9,0,1.8,0,2.7,0c0.8,0,1.5,0.1,2,0.2c0.7,0.2,1.2,0.5,1.5,0.9s0.4,0.9,0.4,1.6C685.8,260.2,685.6,260.6,685.4,261z"/>
			</g>
		</g>
		<path class="st5" d="M842,241.6c-1.8,2.5-6.2,6.2-12,8.7c-6.7,2.9-14.2,3.6-20.8,1.4c-4.2-1.4-8.1-4-11.2-7.5l-6.1,2.7l-2.7-5.1
			l5.3-2.3c-0.5-0.9-0.9-1.5-1.1-1.9c-0.3-0.6-0.8-1.6-1.1-2.6l-5.3,2.3l-2.7-5.1l6.1-2.7c-1-4.3-0.6-8.6,0.9-12.4
			c2.5-6.5,8.1-11.7,15.1-14.7c5.7-2.5,10.4-2.9,13.3-2.9l1.4,8.3c-2.3,0-5.9,0.4-10.1,2.2c-4,1.7-7.1,4.5-8.6,8.3
			c-0.8,1.9-1.1,4.2-0.5,6.4l21.3-9.3l2.7,5.1l-22.6,9.9c0.4,0.9,0.8,1.7,1,2.2c0.4,0.7,0.7,1.4,1.3,2.3l22.6-9.9l2.7,5.1l-21.3,9.3
			c1.5,1.6,3.3,2.8,5.3,3.4c4.4,1.3,8.5,0.8,12.8-1.1c4.2-1.8,7.6-4.6,9.2-6.5L842,241.6z"/>
		<path class="st6" d="M792,248.9v-5.7h-5.8v-2.1h5.8v-2.3h-5.8v-2.1h4.7l-6.2-10h5l3.1,6.2c0.7,1.3,1.1,2.3,1.6,3.4h0.1
			c0.5-1,0.9-2.2,1.6-3.5l3.3-6.1h4.9l-6.6,10h4.7v2.1h-5.9v2.3h5.9v2.1h-5.9v5.7L792,248.9L792,248.9z"/>
		<path class="st5" d="M790.1,182.4v-10.2h-10.4v-3.7h10.4v-4.2h-10.4v-3.7h8.3l-11.1-17.9h8.9l5.6,11.1c1.2,2.3,1.9,4.2,2.8,6.1
			h0.1c0.8-1.8,1.7-4,2.8-6.2l5.8-10.9h8.7L800,160.6h8.3v3.7h-10.5v4.2h10.5v3.7h-10.5v10.2H790.1L790.1,182.4z"/>
		<path class="st5" d="M847.4,127.8c1-7.7-2.8-13.3-13.2-18c-6.7-3.1-8.8-4.7-8.4-7.2c0.4-2.6,3.1-3.9,7.5-3.4
			c4.9,0.6,9.6,2.9,12,4.4l4.7-10.9c-2.7-1.7-7-3.4-12.2-4.4l0.9-6.3l-9.8-1.2l-1,6.7c-10.9,0.6-18.3,6.3-19.5,14.6
			c-1,6.2,2.7,12.6,14.1,17.6c6.3,2.8,7.9,4.4,7.5,7.1c-0.4,2.7-2.9,4.1-8.3,3.4c-5.2-0.6-11.8-3.5-14.7-5.7l-4.9,11.3
			c4.1,2.7,10.6,5,18,5.9l-0.9,6.1l9.8,1.2l1-7.2C840.3,140.8,846.3,135.4,847.4,127.8z"/>
		<path class="st5" d="M819.6,333.4c-1.6-6-6.2-9.2-15.4-10c-5.9-0.5-8-1.2-8.5-3.1c-0.5-2.1,1.1-3.7,4.5-4.5
			c3.8-0.8,8-0.3,10.3,0.2l0.1-9.3c-2.5-0.5-6.3-0.7-10.4-0.1l-1.3-4.9l-7.6,1.7l1.4,5.2c-7.9,3.2-11.7,9.5-10,15.9
			c1.2,4.8,5.9,8.7,16,9.5c5.6,0.5,7.3,1.2,7.8,3.3c0.5,2.1-0.9,3.8-5.1,4.7c-4,0.9-9.8,0.4-12.7-0.4l-0.1,9.6
			c3.8,0.9,9.4,1,15.3-0.3l1.2,4.8l7.6-1.7l-1.5-5.6C818.4,344.9,821.2,339.3,819.6,333.4z"/>
	</g>
	<path class="st2" d="M667.8,365.5c-11.5-0.9-23-1.5-34.5-2.3c-3.8-0.3-7.6-0.3-11.4-0.4c-8.3-0.3-16.5-0.5-24.7-0.8
		c-4.6-0.2-9.2-0.4-13.8-0.5c-1.3,0-2.7,0-4,0c-3,0-6,0.1-9,0.1c-13.6,0-27.2,0-40.8,0.1c-3.2,0-6.5,0.1-9.7,0.2
		c-8,0.1-16,0.3-24.1,0.4c-9,0.2-18.1,0.2-27.1,0.5c-14.6,0.5-29.3,1-43.9,1.4c-8.5,0.3-17,0.4-25.4,0.9
		c-14.6,0.8-29.2,1.5-43.8,2.3c-8,0.4-16,0.8-23.9,1.3c-15.1,1.1-30.2,2.2-45.3,3.3c-8.1,0.6-16.1,1-24.2,1.9
		c-15,1.7-30.1,3.4-45.1,5c-3.3,0.4-6.5,0.7-9.7,1.1c-6.5,0.7-12.9,1.9-19.4,2.8c-0.4,0.1-0.8,0.1-1.2,0.2c-0.8,0.3-1.4,0.8-2,1.5
		c-0.9,1.1-1.3,2.7-1.3,4.2c0,1.6,0.5,3.1,1.3,4.3c0.8,1,2.1,1.9,3.2,1.8c7.8-1.1,15.6-2.4,23.4-3.3c7.3-0.8,14.5-1.6,21.8-2.4
		c7.9-0.9,15.8-1.8,23.7-2.6c3.2-0.4,6.4-0.8,9.6-1.1c12.3-0.9,24.7-1.8,37-2.7c7.7-0.6,15.4-1.1,23.1-1.7c3.2-0.2,6.4-0.5,9.5-0.7
		c12.2-0.6,24.5-1.2,36.7-1.8c7.4-0.4,14.8-0.7,22.2-1.1c2.5-0.1,5-0.3,7.5-0.4c13.2-0.4,26.4-0.8,39.6-1.2
		c7.4-0.2,14.8-0.4,22.1-0.7c2.6-0.1,5.3-0.2,7.9-0.2c13.6-0.2,27.2-0.4,40.9-0.5c8.5-0.1,17-0.2,25.5-0.2c14.5,0,28.9,0.1,43.4,0.1
		c2.8,0,5.7,0.2,8.6,0.3c8,0.3,16,0.6,24,0.9c6,0.2,12,0.5,18,0.7c4.3,0.2,8.5,0.6,12.7,0.9c12.5,0.9,25,1.8,37.5,2.8
		c3.2,0.3,6.3,0.6,9.5,0.9c3.4,0.3,6.8,0.6,10.2,1.1c0.5,0.1,1,0.2,1.6,0.4c1.3,0.4,2.6,0.3,3.8-0.6c1.1-0.9,1.9-2.3,2.3-3.9
		c0.7-3.4-0.9-7-3.5-8c-2.3-0.8-4.6-1.1-7-1.5c-1.6-0.2-3.2-0.4-4.8-0.6c-3.1-0.4-6.2-0.6-9.3-0.9
		C679.4,366.3,673.6,365.9,667.8,365.5z"/>
</g>
</svg>
