<?xml version="1.0" encoding="utf-8"?>
<!-- Generator: Adobe Illustrator 24.1.1, SVG Export Plug-In . SVG Version: 6.00 Build 0)  -->
<svg version="1.1" id="Capa_1" xmlns="http://www.w3.org/2000/svg" xmlns:xlink="http://www.w3.org/1999/xlink" x="0px" y="0px"
	 viewBox="0 0 1000 437.6" style="enable-background:new 0 0 1000 437.6;" xml:space="preserve">
<style type="text/css">
	.st0{fill:#FFFFFF;}
	.st1{fill:#412564;}
	.st2{opacity:0.31;}
	.st3{opacity:0.6;fill:#FFFFFF;enable-background:new    ;}
	.st4{fill:#676767;}
	.st5{opacity:0.15;fill:#200F21;enable-background:new    ;}
	.st6{fill:none;}
	.st7{font-family:'WorkSans-Bold';}
	.st8{font-size:31.9811px;}
	.st9{letter-spacing:2;}
</style>
<g>
	<g>
		<g>
			<g>
				<path class="st0" d="M175.4,113.5l142.4-10.1c4.8-0.3,9.7,4.1,10.3,9.8l4.8,47.4c0.6,5.7-3.4,10.7-8.1,11.1l-68,4.8
					c-5.2,0.4-8.7,5.7-8.1,11.1c0.6,6,5.1,10.5,10.3,10.1l40.8-2.9c4.8-0.3,9.7,4.1,10.3,9.8l4.7,46.7c0.6,5.7-3.4,10.7-8.1,11.1
					l-40.8,2.9c-5.2,0.4-8.7,5.7-8.1,11.1l0.1,1.3c0.6,5.7,5,10.1,10.3,9.8l68-4.8c4.8-0.3,9.7,4.4,10.3,9.8l4.8,47.4
					c0.6,6-3.3,11.1-8.1,11.4L200.4,361c-5.2,0.4-9.7-4-10.3-10.1l-22.9-226.3C166.7,118.9,170.2,113.9,175.4,113.5z"/>
			</g>
			<g>
				<path class="st0" d="M446,301v29.7c0,6.4-4.8,11.5-10,11.5h-54.6c-5.6,0-10-5.1-10-11.5V105.1c0-6.4,4.4-11.5,10-11.5h74.3
					c63,0,98,18.2,98,96.7c0,78.2-34.5,99.1-98,99.1C450.4,289.5,446,294.5,446,301z M452.4,221.4c19.3,0,25.7-9.4,25.7-31
					c0-22.6-6.4-29-25.7-29H446v60L452.4,221.4L452.4,221.4z"/>
			</g>
			<g>
				<path class="st0" d="M616.9,98.1l90.5,5.8c6.4,0.4,11.5,5.8,12.5,13l21.9,219.1c1.1,9.9-6.2,18.9-14.6,18.3l-47.6-3.1
					c-6-0.4-11.2-5.5-12.1-12.6l-0.3-5.1c-1-6.8-6.1-12.2-12.1-12.6l-27.2-1.8c-6.8-0.4-12.5,4.6-14.4,11.9l-1.1,3.3
					c-1.9,7.3-7.9,12-14.3,11.6l-45.2-2.9c-8.4-0.5-14-10.4-11.1-19.6l61-214.1C604.4,102.3,610.5,97.6,616.9,98.1z M636.5,235.9
					c-2.5,9.3,3.2,18.4,11.6,19c8.4,0.5,15.6-7.8,15.3-17.3l-3-69.1l-8-0.5L636.5,235.9z"/>
			</g>
			<g>
				<path class="st1" d="M191.3,113.5l142.4-10.1c4.8-0.3,9.7,4.1,10.3,9.8l4.8,47.4c0.6,5.7-3.4,10.7-8.1,11.1l-68,4.8
					c-5.2,0.4-8.7,5.7-8.1,11.1c0.6,6,5.1,10.5,10.3,10.1l40.8-2.9c4.8-0.3,9.7,4.1,10.3,9.8l4.7,46.7c0.6,5.7-3.4,10.7-8.1,11.1
					l-40.8,2.9c-5.2,0.4-8.7,5.7-8.1,11.1l0.1,1.3c0.6,5.7,5,10.1,10.3,9.8l68-4.8c4.8-0.3,9.7,4.4,10.3,9.8l4.8,47.4
					c0.6,6-3.3,11.1-8.1,11.4L216.3,361c-5.2,0.4-9.7-4-10.3-10.1l-22.9-226.3C182.6,118.9,186.1,113.9,191.3,113.5z"/>
			</g>
			<g>
				<path class="st1" d="M461.9,301v29.7c0,6.4-4.8,11.5-10,11.5h-54.6c-5.6,0-10-5.1-10-11.5V105.1c0-6.4,4.4-11.5,10-11.5h74.3
					c63,0,98,18.2,98,96.7c0,78.2-34.5,99.1-98,99.1C466.3,289.5,461.9,294.5,461.9,301z M468.3,221.4c19.3,0,25.7-9.4,25.7-31
					c0-22.6-6.4-29-25.7-29h-6.4v60L468.3,221.4L468.3,221.4z"/>
			</g>
			<g>
				<path class="st1" d="M632.8,98.1l90.5,5.8c6.4,0.4,11.5,5.8,12.5,13l21.9,219.1c1.1,9.9-6.2,18.9-14.6,18.3l-47.6-3.1
					c-6-0.4-11.2-5.5-12.1-12.6l-0.3-5.1c-1-6.8-6.1-12.2-12.1-12.6l-27.2-1.8c-6.8-0.4-12.5,4.6-14.4,11.9l-1.1,3.3
					c-1.9,7.3-7.9,12-14.3,11.6l-45.2-2.9c-8.4-0.5-14-10.4-11.1-19.6l61-214.1C620.3,102.3,626.4,97.6,632.8,98.1z M652.4,235.9
					c-2.5,9.3,3.2,18.4,11.6,19c8.4,0.5,15.6-7.8,15.3-17.3l-3-69.1l-8-0.5L652.4,235.9z"/>
			</g>
			<g>
				<path class="st1" d="M798.8,298.5l62.8,1.5c8.8,0.2,15.1,7.8,14.7,16.8l-2.5,52.4c-0.4,9-7.5,16.3-16.2,16l-62.8-1.5
					c-8.8-0.2-15.1-7.8-14.7-16.8l2.5-52.4C783,305.5,790,298.3,798.8,298.5z M806.2,95.4l66.9,1.6c8.8,0.2,15.6,8.2,15.1,17.6
					l-12.2,150.1c-0.4,9-7.4,15.9-16.2,15.7l-57.6-1.4c-8.7-0.2-15.1-7.4-14.7-16.4l1.9-150.4C789.9,102.8,797.4,95.2,806.2,95.4z"
					/>
			</g>
			<g>
				<path class="st0" d="M806,300.2l57.7,1.5c8,0.2,13.9,7.6,13.5,16.5l-2.3,51.4c-0.4,8.8-6.8,15.9-14.9,15.7l-57.7-1.5
					c-8-0.2-13.9-7.6-13.5-16.5l2.3-51.4C791.5,307.2,798,300,806,300.2z M812.8,101.3l61.5,1.6c8,0.2,14.3,8.1,13.9,17.3L877,267.2
					c-0.4,8.8-6.8,15.5-14.9,15.3l-53-1.4c-8-0.2-13.9-7.3-13.5-16.1l1.7-147.3C797.8,108.6,804.8,101.1,812.8,101.3z"/>
			</g>
			<g class="st2">
				<path class="st3" d="M618,319.4c-0.1-6.5-4.3-10.8-14.4-13.7c-6.5-1.9-8.7-3-8.7-5.1c0-2.2,2.3-3.6,6.4-3.6
					c4.5,0,9.2,1.5,11.6,2.5l2.9-9.5c-2.7-1.1-6.9-2.1-11.7-2.4v-5.3H595v5.7c-9.9,1.6-15.9,7.1-15.9,14.2
					c-0.1,5.2,4.1,10.3,15.2,13.3c6.1,1.7,7.8,2.8,7.8,5.1c0,2.3-2.1,3.7-7.2,3.7c-4.8,0-11.2-1.8-14.2-3.3l-3,9.9
					c4.1,1.8,10.3,3.1,17.3,3.1v5.2h9.1v-6.1C613.3,330.9,618,325.8,618,319.4z"/>
				<path class="st3" d="M444.4,246c-1.5,1.8-5,4.5-9.7,6.4c-5.4,2.1-11.5,2.7-16.8,1.1c-3.4-1-6.5-2.9-9-5.5l-5,2l-2.1-3.8l4.3-1.7
					c-0.4-0.6-0.7-1.1-0.9-1.4c-0.3-0.4-0.6-1.1-0.9-1.9l-4.3,1.7l-2.1-3.8l5-2c-0.8-3.2-0.5-6.4,0.7-9.2c2-4.8,6.6-8.6,12.2-10.9
					c4.6-1.8,8.4-2.2,10.7-2.2l1.1,6.1c-1.9,0-4.8,0.3-8.2,1.6c-3.2,1.3-5.8,3.3-7,6.1c-0.7,1.4-0.9,3.1-0.4,4.7l17.2-6.8l2.1,3.8
					l-18.3,7.3c0.3,0.7,0.6,1.2,0.8,1.6c0.3,0.5,0.6,1,1.1,1.7l18.3-7.3l2.1,3.8l-17.2,6.8c1.3,1.2,2.7,2.1,4.3,2.5
					c3.5,0.9,6.9,0.6,10.4-0.8c3.4-1.3,6.1-3.4,7.4-4.8L444.4,246z"/>
				<path class="st3" d="M306.9,235.9c-7.4,3.7-22.2,7.5-39.2,7.5c-19.5,0-38.1-5.5-51-16.5c-8.2-6.9-14.2-16.2-17.3-26.8h-17.8
					v-13.5h15.4c0-2.3-0.3-4.1-0.3-5.3c0-1.6,0-4.1,0.5-6.6h-15.3v-13.5h17.8c3-10.3,9.3-19.2,17.6-26.1c14-11.7,33.7-17.6,54-17.6
					c16.5,0,28.2,3.4,35.1,6.2l-6.9,19.2c-5.5-2.3-14.5-4.8-26.6-4.8c-11.5,0-22.5,3-30.7,9.8c-4.4,3.4-7.7,8-9,13.3h62v13.5h-65.8
					c-0.3,2.3-0.3,4.4-0.3,5.7c0,1.8,0,3.7,0.3,6.2h65.8v13.5h-62c1.6,5,4.4,9.1,8.2,12.3c8.8,6.9,19.2,9.8,31.8,9.8
					c12.1,0,23.6-2.7,29.9-5.5L306.9,235.9z"/>
				<path class="st4" d="M339.7,146.4c-1,0.5-3.2,1.1-5.6,1.1c-2.8,0-5.4-0.8-7.3-2.3c-1.2-1-2-2.3-2.5-3.8h-2.5v-1.9h2.2
					c0-0.3,0-0.6,0-0.8c0-0.2,0-0.6,0.1-0.9h-2.2v-1.9h2.5c0.4-1.5,1.3-2.7,2.5-3.7c2-1.7,4.8-2.5,7.7-2.5c2.3,0,4,0.5,5,0.9l-1,2.7
					c-0.8-0.3-2.1-0.7-3.8-0.7c-1.6,0-3.2,0.4-4.4,1.4c-0.6,0.5-1.1,1.1-1.3,1.9h8.8v1.9h-9.4c0,0.3,0,0.6,0,0.8c0,0.3,0,0.5,0,0.9
					h9.4v1.9h-8.8c0.2,0.7,0.6,1.3,1.2,1.8c1.3,1,2.7,1.4,4.5,1.4c1.7,0,3.4-0.4,4.3-0.8L339.7,146.4z"/>
				<path class="st3" d="M730.7,218.5c-1.2,0.6-3.7,1.3-6.5,1.3c-3.3,0-6.4-0.9-8.5-2.8c-1.4-1.1-2.4-2.7-2.9-4.5h-3v-2.3h2.6
					c0-0.4,0-0.7,0-0.9c0-0.3,0-0.7,0.1-1.1h-2.6v-2.3h3c0.5-1.7,1.5-3.2,2.9-4.4c2.3-1.9,5.6-2.9,9-2.9c2.8,0,4.7,0.6,5.9,1
					l-1.1,3.2c-0.9-0.4-2.4-0.8-4.4-0.8c-1.9,0-3.8,0.5-5.1,1.6c-0.7,0.6-1.3,1.3-1.5,2.2h10.3v2.3h-11c0,0.4,0,0.7,0,0.9
					c0,0.3,0,0.6,0,1h11v2.3h-10.3c0.3,0.8,0.7,1.5,1.4,2.1c1.5,1.1,3.2,1.6,5.3,1.6c2,0,3.9-0.5,5-0.9L730.7,218.5z"/>
				<path class="st3" d="M274.7,336.4c-1.6,0.8-4.9,1.7-8.6,1.7c-4.3,0-8.4-1.2-11.2-3.6c-1.8-1.5-3.1-3.6-3.8-5.9h-3.9v-3h3.4
					c0-0.5-0.1-0.9-0.1-1.2c0-0.4,0-0.9,0.1-1.5h-3.4v-3h3.9c0.7-2.3,2.1-4.2,3.9-5.7c3.1-2.6,7.4-3.9,11.9-3.9
					c3.6,0,6.2,0.8,7.7,1.4l-1.5,4.2c-1.2-0.5-3.2-1.1-5.9-1.1c-2.5,0-5,0.7-6.8,2.2c-1,0.8-1.7,1.8-2,2.9h13.7v3h-14.5
					c-0.1,0.5-0.1,1-0.1,1.3c0,0.4,0,0.8,0.1,1.4h14.5v3h-13.7c0.4,1.1,1,2,1.8,2.7c1.9,1.5,4.2,2.2,7,2.2c2.7,0,5.2-0.6,6.6-1.2
					L274.7,336.4z"/>
				<path class="st3" d="M331.5,318.8v-5.3h-6v-1.9h6v-2.2h-6v-1.9h4.8l-6.3-9.3h5.1l3.2,5.8c0.7,1.2,1.1,2.2,1.6,3.2h0.1
					c0.5-1,1-2.1,1.6-3.2l3.3-5.7h5l-6.7,9.3h4.7v1.9h-6v2.2h6v1.9h-6v5.3H331.5z"/>
				<path class="st3" d="M429.9,332.1v-9.5h-10.6v-3.5h10.6v-3.9h-10.6v-3.5h8.5l-11.3-16.6h9l5.7,10.3c1.2,2.1,2,3.9,2.9,5.7h0.1
					c0.8-1.7,1.7-3.7,2.9-5.8l5.9-10.1h8.8l-11.9,16.6h8.4v3.5h-10.7v3.9h10.7v3.5h-10.7v9.5L429.9,332.1L429.9,332.1z"/>
				<path class="st3" d="M607.6,239.6v-6.9h-7.8v-2.5h7.8v-2.8h-7.8v-2.5h6.2l-8.3-12.2h6.6l4.2,7.5c0.9,1.5,1.4,2.8,2.1,4.1h0.1
					c0.6-1.2,1.2-2.7,2.1-4.2l4.3-7.4h6.5l-8.7,12.2h6.2v2.5h-7.8v2.8h7.8v2.5h-7.8v6.9H607.6z"/>
				<path class="st3" d="M434.1,153.3c-0.1-5.7-3.8-9.5-12.7-12c-5.7-1.6-7.6-2.6-7.6-4.5c0-2,2-3.1,5.6-3.1c4,0,8,1.3,10.1,2.2
					l2.5-8.4c-2.3-1-6-1.8-10.3-2.1v-4.7h-8v5c-8.6,1.4-14,6.2-14,12.4c0,4.6,3.6,9,13.4,11.7c5.4,1.5,6.9,2.5,6.9,4.5
					c0,2-1.9,3.2-6.3,3.2c-4.2,0-9.8-1.5-12.5-2.9l-2.6,8.7c3.6,1.6,9.1,2.8,15.2,2.8v4.5h8v-5.4C430,163.4,434.1,159,434.1,153.3z"
					/>
				<path class="st3" d="M718.9,326.9c0-4.3-2.8-7.1-9.5-9c-4.3-1.2-5.7-2-5.7-3.4c0-1.5,1.5-2.4,4.2-2.4c3,0,6,1,7.6,1.6l1.9-6.3
					c-1.8-0.7-4.5-1.4-7.7-1.6v-3.5h-6v3.7c-6.5,1-10.5,4.7-10.5,9.3c0,3.4,2.7,6.8,10,8.8c4,1.1,5.2,1.9,5.2,3.4
					c0,1.5-1.4,2.4-4.7,2.4c-3.2,0-7.4-1.2-9.4-2.2l-2,6.5c2.7,1.2,6.8,2.1,11.4,2.1v3.4h6v-4C715.8,334.5,718.9,331.1,718.9,326.9z
					"/>
				<path class="st3" d="M666.6,131.8c-1.6-1.4-3.8-2.4-6.5-2.8v-0.2c2-0.7,3.5-1.7,4.5-3c1.1-1.3,1.6-2.8,1.6-4.5
					c0-1.5-0.4-2.8-1.2-3.9c-0.8-1.1-2-2-3.6-2.7c-1.5-0.6-3.1-1.1-4.7-1.3c-0.6-0.1-1.4-0.1-2.3-0.2v-5.4h-5.2v5.3h-2.7v-5.3h-5.2
					v5.3H633v35h8.3v5.4h5.2v-5.4h2.7v5.4h5.2v-5.5c1.7-0.1,3.2-0.3,4.5-0.6c2-0.4,3.8-1.2,5.5-2.2c1.4-0.9,2.5-2,3.4-3.3
					c0.8-1.3,1.2-2.9,1.2-4.5C669,135.1,668.2,133.3,666.6,131.8z M655.1,123.1c0,0.8-0.2,1.4-0.5,2s-0.9,1-1.9,1.4
					c-0.7,0.3-1.7,0.4-2.8,0.5c-1.2,0.1-2.7,0.1-4.4,0.1h-1.7v-7.4h1c2.1,0,3.8,0,5,0c1.2,0,2.2,0.2,3,0.4c0.9,0.3,1.5,0.7,1.8,1.3
					C654.9,121.9,655.1,122.5,655.1,123.1z M657.1,139.6c-0.4,0.6-1.2,1.2-2.3,1.6c-1.1,0.4-2.3,0.6-3.6,0.6c-1.3,0-3.5,0-6.5,0
					h-0.8v-8.7h2.4c1.6,0,3.2,0,4.7,0c1.5,0,2.7,0.1,3.5,0.3c1.2,0.3,2.1,0.8,2.6,1.4c0.5,0.6,0.8,1.5,0.8,2.6
					C657.7,138.2,657.5,138.9,657.1,139.6z"/>
				<path class="st3" d="M554.7,183.7c-2.2-2.2-5.2-3.6-9-4.3v-0.3c2.7-1.1,4.8-2.7,6.2-4.7c1.5-2,2.2-4.3,2.2-6.9
					c0-2.2-0.5-4.2-1.6-6c-1.1-1.7-2.7-3.1-4.9-4.2c-2.1-1-4.3-1.6-6.4-1.9c-0.9-0.1-2-0.2-3.2-0.3v-8.3h-7.1v8.1h-3.8v-8.1H520v8.1
					h-11.4v53.9H520v8.3h7.1v-8.3h3.8v8.3h7.1v-8.4c2.3-0.2,4.4-0.4,6.2-0.9c2.7-0.7,5.2-1.8,7.5-3.4c2-1.4,3.5-3.1,4.6-5.1
					c1.1-2.1,1.7-4.4,1.7-7C558,188.8,556.9,185.9,554.7,183.7z M538.9,170.2c0,1.2-0.2,2.2-0.6,3.1s-1.3,1.6-2.6,2.1
					c-1,0.4-2.3,0.7-3.9,0.7c-1.7,0.1-3.7,0.1-6,0.1h-2.3v-11.4h1.4c2.9,0,5.2,0,6.8,0.1c1.6,0,3,0.2,4.1,0.6c1.2,0.4,2.1,1.1,2.5,2
					C538.7,168.5,538.9,169.3,538.9,170.2z M541.7,195.7c-0.6,1-1.6,1.8-3.2,2.4c-1.5,0.6-3.2,0.9-5,0.9c-1.8,0-4.8,0-9,0h-1.1
					v-13.4h3.2c2.2,0,4.3,0,6.4,0c2,0,3.6,0.2,4.8,0.5c1.7,0.5,2.9,1.2,3.6,2.1c0.7,0.9,1.1,2.3,1.1,4
					C542.5,193.5,542.2,194.7,541.7,195.7z"/>
				<path class="st3" d="M749.4,262.2c-0.9-0.8-2.2-1.4-3.8-1.6v-0.1c1.1-0.4,2-1,2.6-1.8s0.9-1.6,0.9-2.6c0-0.9-0.2-1.6-0.7-2.3
					c-0.5-0.7-1.1-1.2-2.1-1.6c-0.9-0.4-1.8-0.6-2.7-0.7c-0.4,0-0.8-0.1-1.4-0.1v-3.1h-3v3.1h-1.6v-3.1h-3v3.1H730v20.3h4.8v3.1h3
					v-3.1h1.6v3.1h3v-3.2c1-0.1,1.9-0.2,2.6-0.3c1.2-0.3,2.2-0.7,3.2-1.3c0.8-0.5,1.5-1.1,2-1.9c0.5-0.8,0.7-1.6,0.7-2.6
					C750.8,264.1,750.3,263,749.4,262.2z M742.8,257.1c0,0.4-0.1,0.8-0.3,1.1s-0.5,0.6-1.1,0.8c-0.4,0.1-1,0.3-1.7,0.3
					c-0.7,0-1.5,0-2.5,0h-1v-4.3h0.6c1.2,0,2.2,0,2.9,0c0.7,0,1.3,0.1,1.7,0.2c0.5,0.2,0.9,0.4,1.1,0.7
					C742.7,256.5,742.8,256.8,742.8,257.1z M743.9,266.7c-0.2,0.4-0.7,0.7-1.3,0.9c-0.6,0.2-1.3,0.4-2.1,0.4c-0.8,0-2,0-3.8,0h-0.5
					v-5.1h1.4c0.9,0,1.8,0,2.7,0s1.5,0.1,2,0.2c0.7,0.2,1.2,0.4,1.5,0.8c0.3,0.4,0.5,0.9,0.5,1.5
					C744.3,265.9,744.2,266.3,743.9,266.7z"/>
			</g>
		</g>
		<path class="st5" d="M881.9,239.4c-1.9,2.3-6.3,5.7-12.2,8.1c-6.8,2.7-14.4,3.4-21.1,1.3c-4.2-1.3-8.2-3.7-11.4-6.9l-6.2,2.5
			l-2.7-4.7l5.4-2.1c-0.5-0.8-0.9-1.4-1.1-1.8c-0.3-0.6-0.8-1.4-1.1-2.4l-5.4,2.1l-2.7-4.7l6.2-2.5c-1-4-0.6-8,0.9-11.5
			c2.5-6,8.3-10.8,15.3-13.6c5.8-2.3,10.5-2.7,13.5-2.7l1.4,7.7c-2.4,0-6,0.3-10.3,2c-4,1.6-7.3,4.2-8.8,7.7
			c-0.8,1.8-1.1,3.9-0.5,5.9l21.7-8.6l2.7,4.7l-23,9.1c0.4,0.8,0.8,1.6,1,2c0.4,0.6,0.7,1.3,1.3,2.1l23-9.1l2.7,4.7l-21.7,8.6
			c1.6,1.5,3.4,2.6,5.3,3.2c4.4,1.2,8.7,0.8,13.1-1c4.2-1.7,7.7-4.2,9.3-6.1L881.9,239.4z"/>
		<path class="st5" d="M822.9,263.8v-5.3h-6v-1.9h6v-2.2h-6v-1.9h4.8l-6.3-9.3h5.1l3.2,5.8c0.7,1.2,1.1,2.2,1.6,3.2h0.1
			c0.5-0.9,1-2.1,1.6-3.2l3.3-5.7h5l-6.7,9.3h4.7v1.9h-6v2.2h6v1.9h-6v5.3L822.9,263.8L822.9,263.8z"/>
		<path class="st5" d="M821,202.1v-9.5h-10.6v-3.5H821v-3.9h-10.6v-3.5h8.5l-11.3-16.6h9l5.7,10.3c1.2,2.1,2,3.9,2.9,5.7h0.1
			c0.8-1.7,1.7-3.7,2.8-5.8l5.9-10.1h8.8l-11.9,16.6h8.4v3.5h-10.7v3.9h10.7v3.5h-10.7v9.5H821z"/>
		<path class="st5" d="M873.2,141.3c1-7.1-2.8-12.4-13.4-16.7c-6.8-2.8-9-4.3-8.6-6.7c0.4-2.4,3.2-3.6,7.6-3.2
			c4.9,0.5,9.8,2.7,12.2,4.1l4.8-10.1c-2.7-1.5-7.2-3.1-12.4-4.1l0.9-5.8l-9.9-1.1l-1,6.2c-11,0.5-18.6,5.8-19.9,13.6
			c-1,5.7,2.7,11.7,14.3,16.4c6.4,2.6,8.1,4,7.7,6.6c-0.4,2.5-3,3.8-8.5,3.2c-5.3-0.6-12-3.3-15-5.3l-5,10.4
			c4.1,2.5,10.8,4.7,18.3,5.5l-0.9,5.7l9.9,1.1l1-6.7C866,153.3,872.1,148.3,873.2,141.3z"/>
		<path class="st5" d="M857.4,348.4c-2.1-7-7.7-10.9-18.6-12c-7.1-0.8-9.5-1.5-10.2-3.9c-0.7-2.4,1.2-4.4,5.2-5.1
			c4.5-0.9,9.6-0.2,12.3,0.4l-0.1-10.9c-3-0.7-7.5-0.9-12.4-0.3l-1.7-5.8l-9,1.8l1.8,6.1c-9.3,3.6-13.7,10.9-11.5,18.5
			c1.6,5.7,7.3,10.3,19.3,11.4c6.6,0.7,8.7,1.5,9.4,4c0.7,2.5-1,4.4-6,5.4c-4.8,1-11.7,0.3-15.2-0.8l0.1,11.3
			c4.6,1.2,11.2,1.4,18.2,0l1.6,5.6l9-1.8l-1.9-6.6C856.3,361.9,859.4,355.4,857.4,348.4z"/>
		<rect x="594.1" y="366.1" class="st6" width="158.1" height="33.7"/>
		<text transform="matrix(0.9825 0 0 1 594.1094 388.9244)" class="st0 st7 st8 st9">REMESA</text>
		<g>
			<path class="st1" d="M613,385.8l-4.4-7.7h-3.2v7.7H600v-21.1h9.9c4.9,0,7.8,2.5,7.8,6.5c0,3.1-1.5,5.2-4.2,6.1l5.4,8.5L613,385.8
				L613,385.8z M605.3,374.2h3.8c2.1,0,3.1-0.8,3.1-2.7c0-1.9-1-2.6-3.1-2.6h-3.8V374.2z"/>
			<path class="st1" d="M625.2,364.7h16.2v4.3h-10.7v4.3h8.5v4h-8.5v4.3h11.2v4.3h-16.5L625.2,364.7L625.2,364.7z"/>
			<path class="st1" d="M672.5,385.8h-4.8v-9.7l0.2-6.5h-0.1l-5.1,16.2h-4.4l-5.1-16.2h-0.1l0.2,6.5v9.7h-4.8v-21.1h7.7l3.3,10.7
				l1.2,4.5h0.1l1.2-4.5l3.2-10.8h7.4L672.5,385.8L672.5,385.8z"/>
			<path class="st1" d="M680.5,364.7h16.2v4.3H686v4.3h8.5v4H686v4.3h11.2v4.3h-16.5L680.5,364.7L680.5,364.7z"/>
			<path class="st1" d="M720.9,368l-2.6,3.5c-1.8-1.9-3.8-2.9-6.4-2.9c-2.3,0-3.2,0.9-3.2,2c0,0.9,0.8,1.5,2.6,1.9l3.5,0.8
				c4.2,1,6,2.8,6,5.9c0,4.5-3.7,6.9-8.8,6.9c-4.2,0-7.8-1.5-9.9-3.8l2.6-3.7c1.6,1.9,4.4,3.2,7.2,3.2c2.1,0,3.3-0.7,3.3-1.9
				c0-0.9-0.5-1.5-2.3-2l-3.8-0.9c-3.5-0.8-6.1-2.4-6.1-5.9c0-4,3.3-6.9,9-6.9C715.8,364.4,718.8,365.6,720.9,368z"/>
			<path class="st1" d="M739.4,381.1h-7.2l-1.4,4.8h-5.4l7.3-21.1h6.5l7.3,21.1h-5.6L739.4,381.1z M738.2,377.3l-1.5-5l-0.9-3.3
				h-0.1l-0.8,3.3l-1.5,5.1H738.2z"/>
		</g>
	</g>
	<path class="st1" d="M554.8,370.7c-8.3-0.6-16.7-1-25-1.4c-2.8-0.2-5.5-0.2-8.3-0.3c-6-0.2-12-0.4-17.9-0.5
		c-3.3-0.1-6.7-0.2-10-0.3c-1,0-1.9,0-2.9,0c-2.2,0-4.3,0-6.5,0c-9.9,0-19.7,0-29.6,0c-2.4,0-4.7,0.1-7,0.1
		c-5.8,0.1-11.6,0.2-17.4,0.3c-6.6,0.1-13.1,0.1-19.7,0.3c-10.6,0.3-21.2,0.6-31.8,0.9c-6.1,0.2-12.3,0.3-18.4,0.5
		c-10.6,0.5-21.2,1-31.7,1.4c-5.8,0.3-11.6,0.5-17.3,0.8c-10.9,0.7-21.9,1.4-32.8,2.1c-5.9,0.4-11.7,0.6-17.5,1.2
		c-10.9,1-21.8,2.1-32.7,3.2c-2.4,0.2-4.7,0.5-7.1,0.7c-4.7,0.5-9.4,1.2-14.1,1.8c-0.3,0-0.6,0.1-0.9,0.1c-0.6,0.2-1.1,0.5-1.5,1
		c-0.6,0.7-1,1.7-1,2.7s0.4,2,1,2.7c0.6,0.6,1.5,1.2,2.4,1.1c5.7-0.7,11.3-1.5,17-2c5.3-0.5,10.5-1,15.8-1.5
		c5.7-0.6,11.5-1.1,17.2-1.7c2.3-0.2,4.6-0.5,6.9-0.7c8.9-0.6,17.9-1.1,26.8-1.7c5.6-0.4,11.1-0.7,16.7-1c2.3-0.1,4.6-0.3,6.9-0.4
		c8.9-0.4,17.7-0.8,26.6-1.2c5.4-0.2,10.8-0.5,16.1-0.7c1.8-0.1,3.6-0.2,5.4-0.2c9.6-0.3,19.1-0.5,28.7-0.8c5.3-0.1,10.7-0.3,16-0.4
		c1.9,0,3.8-0.1,5.7-0.1c9.9-0.1,19.7-0.2,29.6-0.4c6.2-0.1,12.3-0.1,18.5-0.1c10.5,0,21,0.1,31.4,0.1c2.1,0,4.1,0.1,6.2,0.2
		c5.8,0.2,11.6,0.4,17.4,0.6c4.3,0.1,8.7,0.3,13,0.4c3.1,0.1,6.2,0.4,9.2,0.5c9.1,0.6,18.1,1.1,27.2,1.8c2.3,0.2,4.6,0.4,6.9,0.5
		c2.5,0.2,4.9,0.4,7.4,0.7c0.4,0.1,0.8,0.1,1.1,0.3c1,0.2,1.9,0.2,2.8-0.4c0.8-0.5,1.4-1.4,1.7-2.4c0.5-2.1-0.6-4.4-2.5-5
		c-1.7-0.5-3.4-0.7-5.1-0.9c-1.2-0.1-2.3-0.3-3.5-0.4c-2.2-0.3-4.5-0.4-6.7-0.6C563.3,371.2,559,371,554.8,370.7z"/>
	<g>
		<g>
			<g>
				<path class="st0" d="M191.4,75.7c-0.6-6.1-1.2-12.2-1.8-18.3c-0.9-9.7-1.9-19.5-2.9-29.2c-0.2-2.2-0.4-4.5-0.7-6.7
					c-0.1-1.3-1-2.4-2.4-2.4c-1.2,0-2.5,1.1-2.4,2.4c0.6,6.1,1.2,12.2,1.8,18.3c0.9,9.7,1.9,19.5,2.9,29.2c0.2,2.2,0.4,4.5,0.7,6.7
					c0.1,1.3,1,2.4,2.4,2.4C190.3,78.1,191.6,77,191.4,75.7L191.4,75.7z"/>
			</g>
		</g>
		<g>
			<g>
				<path class="st0" d="M145,112.1c-4.3-3.9-8.7-7.8-13-11.7c-0.6-0.6-1.2-1.1-1.9-1.7c-0.9-0.8-2.5-1-3.4,0c-0.8,0.9-1,2.5,0,3.4
					c4.3,3.9,8.7,7.8,13,11.7c0.6,0.6,1.2,1.1,1.9,1.7c0.9,0.8,2.5,1,3.4,0C145.8,114.6,146,113,145,112.1L145,112.1z"/>
			</g>
		</g>
		<g>
			<g>
				<path class="st0" d="M117.2,162.2c-5.1-0.2-10.2-0.4-15.3-0.6c-8.2-0.3-16.3-0.7-24.5-1c-1.9-0.1-3.7-0.1-5.6-0.2
					c-3.1-0.1-3.1,4.7,0,4.8c5.1,0.2,10.2,0.4,15.3,0.6c8.2,0.3,16.3,0.7,24.5,1c1.9,0.1,3.7,0.1,5.6,0.2
					C120.3,167.1,120.3,162.3,117.2,162.2L117.2,162.2z"/>
			</g>
		</g>
	</g>
</g>
</svg>
