<?xml version="1.0" encoding="utf-8"?>
<!-- Generator: Adobe Illustrator 24.1.1, SVG Export Plug-In . SVG Version: 6.00 Build 0)  -->
<svg version="1.1" id="Capa_1" xmlns="http://www.w3.org/2000/svg" xmlns:xlink="http://www.w3.org/1999/xlink" x="0px" y="0px"
	 viewBox="0 0 105 105" style="enable-background:new 0 0 105 105;" xml:space="preserve">
<style type="text/css">
	.st0{fill:#45133B;}
</style>
<g>
	<path class="st0" d="M15.1,2.1h74.3c7.1,0,12.8,5.9,12.8,13.1v76c0,7.2-5.8,13.1-12.8,13.1H15.1c-7.1,0-12.8-5.9-12.8-13.1v-76
		C2.2,8,8,2.1,15.1,2.1z M75.1,13.4c-2.5,0-4.5,2.1-4.5,4.6v11c0,2.5,2,4.6,4.5,4.6h11.3c2.5,0,4.5-2.1,4.5-4.6V18
		c0-2.5-2-4.6-4.5-4.6H75.1z M90.9,45.3h-8.8c0.8,2.8,1.3,5.7,1.3,8.8c0,17-13.9,30.8-31.1,30.8c-17.2,0-31.1-13.8-31.1-30.8
		c0-3.1,0.5-6,1.3-8.8h-9.2v43.2c0,2.2,1.8,4.1,4,4.1H87c2.2,0,4-1.8,4-4.1V45.3z M52.3,33.1C41.2,33.1,32.3,42,32.3,53
		c0,11,9,19.9,20.1,19.9S72.4,64,72.4,53C72.4,42,63.4,33.1,52.3,33.1z"/>
</g>
</svg>
